<?xml version="1.0" standalone="no"?>
<!DOCTYPE svg PUBLIC "-//W3C//DTD SVG 20010904//EN"
 "http://www.w3.org/TR/2001/REC-SVG-20010904/DTD/svg10.dtd">
<svg version="1.0" xmlns="http://www.w3.org/2000/svg"
 width="16.000000pt" height="16.000000pt" viewBox="0 0 16.000000 16.000000"
 preserveAspectRatio="xMidYMid meet">
<metadata>
Created by potrace 1.11, written by Peter Selinger 2001-2013
</metadata>
<g transform="translate(0.000000,16.000000) scale(0.008556,-0.008556)"
fill="#000000" stroke="none">
<path d="M40 1575 l0 -295 43 -1 c23 -1 50 -1 59 0 10 1 27 -3 38 -9 20 -10
20 -13 7 -34 -8 -12 -21 -41 -28 -64 l-12 -42 -54 0 -53 0 0 -38 c0 -26 6 -41
20 -50 11 -7 20 -19 20 -27 0 -26 14 -16 32 23 l17 37 -7 -55 c-14 -107 -1
-278 25 -346 4 -11 -29 -27 -79 -38 -26 -6 -28 -10 -28 -61 l0 -55 34 0 c21 0
36 -6 40 -15 4 -12 -3 -15 -34 -15 l-40 0 0 -245 0 -245 298 1 297 0 -50 18
c-55 20 -140 62 -169 83 -16 13 -17 18 -6 39 7 13 26 38 42 55 l30 32 66 -33
c37 -18 93 -41 125 -51 31 -10 57 -24 57 -31 0 -7 5 -13 10 -13 6 0 10 4 10 8
0 5 59 7 131 4 118 -4 133 -7 155 -27 33 -31 30 -53 -8 -70 l-33 -14 53 -1 52
0 0 53 c0 63 12 81 65 97 102 32 245 122 321 202 59 61 125 163 154 236 14 34
30 62 36 62 7 0 24 -14 38 -31 38 -45 37 -116 -3 -162 -25 -28 -27 -34 -14
-43 12 -8 9 -17 -23 -59 -112 -151 -280 -279 -439 -336 -50 -18 -50 -18 273
-18 l322 -1 0 339 0 338 -43 13 c-24 6 -55 21 -70 33 -24 20 -25 26 -17 72 12
77 3 221 -19 309 -20 75 -20 80 -3 92 44 35 83 55 99 52 10 -2 25 4 35 14 15
15 17 48 18 312 l0 296 -895 0 -895 0 0 -295z m1080 245 c114 -29 116 -30 90
-63 -16 -20 -30 -27 -55 -27 -19 0 -37 5 -40 10 -10 16 -19 12 -37 -21 l-18
-30 -82 6 c-64 5 -87 11 -100 26 -21 24 -28 24 -28 0 0 -22 -11 -26 -85 -36
-41 -6 -134 -35 -218 -70 -13 -6 -21 2 -37 36 -11 24 -20 56 -20 71 0 24 7 29
78 56 42 17 113 37 157 46 44 8 89 17 100 19 50 11 216 -2 295 -23z m223 -82
c45 -23 113 -68 152 -98 85 -68 190 -185 180 -201 -10 -15 -85 -49 -110 -49
-12 0 -49 29 -91 73 -46 46 -102 90 -157 122 -86 50 -86 50 -87 91 0 39 17
104 27 104 3 0 41 -19 86 -42z m-894 -115 c1 -61 1 -62 -46 -105 -26 -24 -65
-62 -87 -85 -38 -42 -41 -43 -100 -42 -34 1 -72 4 -84 8 -23 6 -22 9 36 81 73
92 118 134 202 193 75 53 78 51 79 -50z m271 -333 c11 -23 18 -46 14 -52 -4
-7 -30 -9 -70 -5 -61 4 -63 4 -74 -23 -15 -37 -57 -76 -102 -95 l-38 -15 -68
102 c-38 57 -72 109 -76 116 -6 9 36 12 193 12 l201 0 20 -40z m749 17 l22
-24 -33 -49 c-18 -27 -48 -73 -66 -103 -34 -54 -43 -58 -93 -37 -12 5 -18 0
-22 -21 -27 -127 -194 -178 -294 -89 -13 11 -23 26 -23 34 0 8 20 49 44 91 24
42 55 100 70 129 14 28 33 52 40 52 9 0 12 7 9 20 -5 19 0 20 159 20 160 0
165 -1 187 -23z m-680 -144 c11 -21 37 -69 57 -107 l36 -69 -21 -28 c-12 -16
-21 -29 -21 -31 0 -2 22 -1 50 0 27 2 65 -2 85 -8 107 -35 178 -172 125 -240
-17 -22 -20 -42 -20 -172 l0 -148 -76 0 -76 0 4 53 c2 28 8 60 12 70 6 13 3
17 -13 17 -17 0 -21 -6 -21 -30 0 -24 -4 -30 -21 -30 -16 0 -19 -4 -14 -17 26
-61 23 -63 -59 -63 l-76 0 0 76 c0 73 1 75 23 69 12 -4 35 -16 50 -27 28 -19
29 -19 42 -1 13 16 10 20 -28 36 -65 28 -87 54 -87 101 0 34 -16 64 -101 195
-56 86 -118 180 -137 210 l-35 54 38 -6 c21 -3 48 -15 60 -27 30 -28 35 -25
35 15 0 65 32 107 97 131 58 20 69 17 92 -23z m-563 -665 c9 -18 30 -50 47
-71 24 -32 28 -41 16 -48 -19 -12 -47 -11 -86 3 -32 12 -56 49 -36 55 6 2 8
15 5 29 -4 20 19 64 34 64 2 0 11 -15 20 -32z m67 -246 c25 -24 67 -91 67
-107 0 -15 -120 89 -164 143 l-19 22 44 -15 c24 -9 57 -28 72 -43z"/>
<path d="M605 940 c0 -37 2 -39 25 -33 14 3 27 7 29 9 4 3 -41 63 -49 63 -3 1
-5 -17 -5 -39z"/>
<path d="M707 875 c3 -16 7 -31 8 -33 3 -3 65 54 65 60 0 1 -18 3 -39 3 -39 1
-40 0 -34 -30z"/>
<path d="M62 1165 c-11 -24 -10 -25 20 -25 24 0 29 3 21 11 -6 6 -9 18 -6 25
9 25 -23 15 -35 -11z"/>
<path d="M724 35 l-11 -35 32 0 33 0 -16 35 c-9 19 -19 35 -22 35 -3 0 -10
-16 -16 -35z"/>
</g>
</svg>
