<?xml version="1.0" standalone="no"?>
<!DOCTYPE svg PUBLIC "-//W3C//DTD SVG 20010904//EN"
 "http://www.w3.org/TR/2001/REC-SVG-20010904/DTD/svg10.dtd">
<svg version="1.0" xmlns="http://www.w3.org/2000/svg"
 width="546.000000pt" height="546.000000pt" viewBox="0 0 546.000000 546.000000"
 preserveAspectRatio="xMidYMid meet">
<metadata>
Created by potrace 1.11, written by Peter Selinger 2001-2013
</metadata>
<g transform="translate(0.000000,546.000000) scale(0.100000,-0.100000)"
fill="#000000" stroke="none">
<path d="M2529 5446 c-2 -2 -35 -6 -74 -10 -38 -3 -83 -8 -100 -11 -161 -30
-211 -41 -299 -65 -648 -182 -1187 -629 -1509 -1250 -152 -294 -232 -555 -291
-950 -27 -178 -28 -678 -1 -841 2 -13 11 -72 20 -131 27 -182 91 -412 175
-633 37 -96 181 -372 245 -469 344 -522 868 -886 1467 -1020 108 -24 152 -31
323 -52 33 -4 148 -7 255 -7 409 1 757 84 1111 264 532 271 950 738 1173 1310
79 203 146 453 170 639 3 25 8 63 11 85 23 161 30 527 14 700 -14 154 -20 209
-24 225 -2 8 -7 35 -10 60 -12 85 -67 313 -102 419 -250 757 -752 1306 -1442
1576 -100 39 -311 102 -371 111 -19 3 -55 10 -80 16 -97 21 -283 36 -466 37
-105 0 -193 -1 -195 -3z m341 -330 c427 -26 819 -272 1072 -671 207 -328 345
-812 385 -1350 15 -196 6 -854 -12 -885 -1 -3 -6 -39 -9 -79 -4 -41 -9 -77
-10 -80 -2 -4 -6 -30 -10 -59 -10 -83 -54 -282 -87 -394 -81 -273 -222 -556
-367 -738 -224 -279 -546 -466 -892 -515 -76 -11 -301 -13 -375 -4 -138 17
-153 19 -231 40 -387 100 -701 382 -919 823 -123 250 -192 481 -249 841 -29
178 -41 379 -41 670 0 267 7 405 30 575 8 63 18 135 21 160 3 25 8 47 9 50 2
3 6 26 10 50 10 74 61 278 95 385 230 722 704 1149 1310 1182 63 3 116 7 118
8 2 2 15 2 30 0 15 -2 70 -6 122 -9z"/>
<path d="M3240 4388 c-154 -63 -406 -191 -520 -265 -386 -251 -683 -623 -829
-1036 -73 -208 -99 -368 -99 -607 0 -181 14 -273 63 -426 92 -285 318 -550
580 -682 327 -164 721 -122 995 107 97 81 146 152 187 268 25 71 27 91 28 228
0 162 -8 200 -65 315 -67 134 -217 261 -369 311 -129 44 -265 35 -466 -31
-117 -38 -146 -43 -199 -29 -76 19 -142 101 -172 214 -14 51 -14 296 0 360 28
133 86 264 164 375 113 161 383 392 695 594 l137 90 0 133 c0 73 -1 133 -2
132 -2 0 -59 -23 -128 -51z"/>
</g>
</svg>
